<?xml version="1.0" encoding="utf-8"?>
<!-- Generator: Adobe Illustrator 16.0.0, SVG Export Plug-In . SVG Version: 6.00 Build 0)  -->
<!DOCTYPE svg PUBLIC "-//W3C//DTD SVG 1.1//EN" "http://www.w3.org/Graphics/SVG/1.1/DTD/svg11.dtd">
<svg version="1.1"
	 id="svg3353" xmlns:dc="http://purl.org/dc/elements/1.1/" xmlns:cc="http://creativecommons.org/ns#" xmlns:rdf="http://www.w3.org/1999/02/22-rdf-syntax-ns#" xmlns:svg="http://www.w3.org/2000/svg" xmlns:sodipodi="http://sodipodi.sourceforge.net/DTD/sodipodi-0.dtd" xmlns:inkscape="http://www.inkscape.org/namespaces/inkscape" sodipodi:docname="Youtube Content Error Message.svg" inkscape:version="0.91 r13725"
	 xmlns="http://www.w3.org/2000/svg" xmlns:xlink="http://www.w3.org/1999/xlink" x="0px" y="0px" width="2560px" height="1600px"
	 viewBox="0 0 2560 1600" style="enable-background:new 0 0 2560 1600;" xml:space="preserve">
<sodipodi:namedview  units="px" id="base" inkscape:cy="506.22713" inkscape:cx="1545.4892" inkscape:zoom="0.2962963" borderlayer="false" borderopacity="1.0" showgrid="false" bordercolor="#666666" pagecolor="#ffffff" inkscape:snap-text-baseline="true" inkscape:snap-object-midpoints="true" inkscape:snap-intersection-paths="true" inkscape:snap-bbox-midpoints="true" inkscape:snap-bbox-edge-midpoints="true" inkscape:snap-page="true" inkscape:snap-center="true" inkscape:snap-midpoints="true" inkscape:object-nodes="true" inkscape:object-paths="true" inkscape:bbox-nodes="true" inkscape:bbox-paths="true" inkscape:snap-bbox="true" inkscape:showpageshadow="false" inkscape:current-layer="layer1" inkscape:document-units="px" inkscape:pageshadow="2" inkscape:pageopacity="0.0">
	</sodipodi:namedview>
<path id="path20793" inkscape:connector-curvature="0" d="M0,1600h2560V0H0V1600z"/>
<g>
	<g id="g20795" transform="matrix(1.25,0,0,-1.25,-454,1210.3622)">
		<g id="g20797">
			<g id="g20803">
				<g id="g20805">
					<path id="path20815" inkscape:connector-curvature="0" style="fill:#E62117;" d="M1232.37,453.34
						c-35.4,0-64.37-28.97-64.37-64.37l0,0V209.48c0-35.41,28.97-64.37,64.37-64.37l0,0h308.85c35.41,0,64.37,28.97,64.37,64.37l0,0
						v179.49c0,35.41-28.97,64.37-64.37,64.37l0,0H1232.37z"/>
				</g>
			</g>
		</g>
	</g>
	<g id="g20825" transform="matrix(1.25,0,0,-1.25,1028.3036,322.3947)">
		<path id="path20827" inkscape:connector-curvature="0" style="fill:#FFFFFF;" d="M126.03-357.79c0,12.5,10.13,22.63,22.63,22.63
			s22.63-10.13,22.63-22.63s-10.13-22.63-22.63-22.63S126.03-370.28,126.03-357.79"/>
	</g>
	<g id="g20829" transform="matrix(1.25,0,0,-1.25,1200.4086,322.3947)">
		<path id="path20831" inkscape:connector-curvature="0" style="fill:#FFFFFF;" d="M98.49-357.79c0,12.5,10.13,22.63,22.63,22.63
			s22.63-10.13,22.63-22.63s-10.13-22.63-22.63-22.63S98.49-370.28,98.49-357.79"/>
	</g>
	<g id="g20833" transform="matrix(1.25,0,0,-1.25,1289.7964,483.15933)">
		<path id="path20835" inkscape:connector-curvature="0" style="fill:#FFFFFF;" d="M84.19-332.06l-176.75-38.42v18.79l176.75,38.42
			V-332.06z"/>
	</g>
</g>
<g id="g21133" transform="matrix(1.25,0,0,-1.25,-312.75,-280.8878)">
	<g id="path21135">
		<rect x="105" y="-553.31" style="fill:#737373;" width="2356" height="6"/>
	</g>
</g>
<g>
	<path style="fill:#FFFFFF;" d="M347.92,177.32h36.36v-18.3h6.53v112.45h-6.53V245.4h-38.78v-6h38.78v-25.18h-34.6v-5.88h34.6
		v-24.95h-36.36V177.32z M412.24,159.02h6.53v18.3h36.6v6.06h-36.6v24.95h34.95v5.88h-34.95v25.18h39.25v6h-39.25v26.07h-6.53
		V159.02z"/>
	<path style="fill:#FFFFFF;" d="M519.04,158.43h6.47v20.71h49.08v18.18h-6.53v-12.65h-91.68v12.65h-6.53v-18.18h49.19V158.43z
		 M486.85,195.38h70.85v24.48h-32.31v11.94h43.01v19.07c0.31,8.12-3.98,12.16-12.89,12.12c-2.39,0.08-6.53,0.12-12.42,0.12
		c-0.43-3.02-0.9-5.14-1.41-6.35c4.51,0.16,8.39,0.24,11.65,0.24c3.33,0.04,5.59-0.49,6.77-1.59c1.25-1.02,1.86-2.98,1.82-5.88
		v-12.18h-36.54v34.72h-6.59v-34.72h-36.07v25.77h-6.47v-31.3h42.54v-11.94h-31.95V195.38z M480.97,165.26l4.18-4.18
		c6.39,4.2,12.22,8.12,17.48,11.77l-4.71,4.71C493.91,174.42,488.26,170.32,480.97,165.26z M493.38,200.86v13.59h57.84v-13.59
		H493.38z M545.28,177.67l-4.06-4.94c8.08-4.82,14.02-8.63,17.83-11.42l4.41,4.59c-3.73,2.63-9.4,6.32-17.01,11.06
		C545.95,177.28,545.56,177.52,545.28,177.67z"/>
	<path style="fill:#FFFFFF;" d="M585.53,220.98c1.25-0.35,3.3-0.96,6.12-1.82c4.67-1.37,8.26-2.41,10.77-3.12v-27.83h-15.53v-5.83
		h15.53v-23.6h6.24v23.6h13.06v5.83h-13.06v25.89c1.49-0.51,3.75-1.24,6.77-2.18c3.02-0.98,5.28-1.71,6.77-2.18
		c0,1.53,0.02,2.65,0.06,3.35c0.04,0.86,0.1,1.77,0.18,2.71c-4.08,1.26-8.67,2.69-13.77,4.3v37.95c0.43,8.28-3.41,12.38-11.53,12.3
		c-1.29,0.04-2.57,0.08-3.82,0.12c-0.59,0-1.24,0-1.94,0c-0.59,0-1.49,0-2.71,0c-0.35-2.47-0.75-4.67-1.18-6.59
		c2.67,0.16,5.47,0.24,8.41,0.24c4.55,0.16,6.73-1.9,6.53-6.18v-35.78c-2.79,0.9-6.85,2.29-12.18,4.18c-1.73,0.63-3,1.08-3.82,1.35
		L585.53,220.98z M625.31,202.15c-1.73-1.49-3.41-2.8-5.06-3.94c8.71-11.49,15.57-24.79,20.6-39.9l6.06,1.53
		c-1.37,3.81-3.14,8.18-5.3,13.12h49.25c-0.04,16.95-0.35,34.64-0.94,53.08c0.04,12.79-5.83,19.09-17.59,18.89
		c-4.24,0.16-9.45,0.24-15.65,0.24c-0.27-2.43-0.65-4.59-1.12-6.47c7.1,0.24,12.12,0.35,15.06,0.35c4.79,0.04,8.08-0.92,9.89-2.88
		c1.88-1.88,2.92-5.47,3.12-10.77c0.55-13.81,0.88-29.3,1-46.49h-45.66C635.27,186.48,630.72,194.23,625.31,202.15z M667.62,226.87
		H636.9v24.71c-0.27,7.57,3.1,11.22,10.12,10.94h30.6c8.32,0.39,13.02-2.26,14.12-7.94c0.9-3.26,1.75-7.2,2.53-11.83
		c2.2,1.1,4.28,1.9,6.24,2.41c-0.63,3.06-1.47,6.55-2.53,10.47c-2.31,8.98-8.26,13.26-17.83,12.83h-35.07
		c-9.89,0.24-14.71-4.92-14.48-15.48v-57.31h37.01V226.87z M636.9,201.33v19.89h24.71v-19.89H636.9z"/>
	<path style="fill:#FFFFFF;" d="M709.34,264.23c-1.26-1.69-2.63-3.33-4.12-4.94c8.59-8.04,15.53-17.4,20.83-28.07H710.4v-5.18h16.12
		v-12.18h-19.01v-5.3h19.01V196.5h-15.06v-5.18h15.06v-11.36h-17.83v-5.3h19.54c-3.14-4.43-6.47-8.77-10-13l4.83-3.47
		c3.61,4.24,7.06,8.53,10.36,12.89l-4.71,3.59h15.53c3.18-4.86,6.51-10.32,10-16.36l5.83,2.88c-2.86,4.16-6.04,8.65-9.53,13.48
		h20.48v5.3h-21.18v11.36h17.36v17.24h6.94v5.3h-6.94v17.36h-17.36v9.47l3.24-3.12c5.81,4.83,11.14,9.57,16.01,14.24l-4.3,4.35
		c-4.9-4.94-9.89-9.65-14.95-14.12v29.66H744v-40.48h-11.65v40.48h-5.83v-32.42C722.56,248.34,716.83,256.66,709.34,264.23z
		 M732.35,179.97v11.36H744v-11.36H732.35z M732.35,196.5v12.06H744V196.5H732.35z M732.35,213.86v12.18H744v-12.18H732.35z
		 M761.36,196.5h-11.53v12.06h11.53V196.5z M749.82,213.86v12.18h11.53v-12.18H749.82z M788.37,224.22
		c0.82-4.55,1.39-9.12,1.71-13.71c0.31-4.31,0.47-10.2,0.47-17.65h6c-0.08,6.32-0.24,11.95-0.47,16.89
		c3.22,23.93,11.61,42.56,25.18,55.9c-1.49,1.29-3.1,2.9-4.83,4.83c-12.95-14.24-20.54-30.26-22.77-48.07
		c-1.96,19.22-9.79,35.7-23.48,49.43c-1.33-1.57-2.94-3.1-4.83-4.59C778.11,254.91,785.78,240.58,788.37,224.22z M777.07,204.45
		c-1.92-1.25-3.75-2.29-5.47-3.12c6.9-11.69,12.38-25.95,16.42-42.78l6,1.29c-1.33,5.57-3.1,11.55-5.3,17.95h30.25v5.83l-5.88,20.36
		l-5.88-1.47l5.88-19.12h-26.42C783.99,190.48,780.79,197.5,777.07,204.45z"/>
	<path style="fill:#FFFFFF;" d="M877.16,272.88h-4.94l9.53-30.19h6.47L877.16,272.88z"/>
	<path style="fill:#FFFFFF;" d="M973.96,157.78l6,2.71c-3.61,6.12-7.22,11.77-10.83,16.95v49.31h-6.12v-40.95
		c-4.2,5.38-8.14,9.94-11.83,13.71c-1.49-1.88-2.94-3.53-4.35-4.94C958.17,183.11,967.21,170.85,973.96,157.78z M960.19,234.22
		l6.06,2.06c-3.81,9.53-7.75,18.2-11.83,26.01l-6.12-2.65C952.93,251.72,956.89,243.24,960.19,234.22z M975.9,235.81h6.36v17.83
		c0.08,5.45,3.18,8.22,9.3,8.3h23.24c7.61,0.39,11.91-2.55,12.89-8.83c0.82-3.41,1.51-7.18,2.06-11.3c2.2,0.94,4.33,1.75,6.41,2.41
		c-0.71,3.85-1.47,7.53-2.29,11.06c-1.81,8.71-7.71,12.93-17.71,12.65h-26.54c-9.14,0-13.71-4.45-13.71-13.36V235.81z
		 M1000.08,193.74l5.18,3.59c-6.67,7.81-13.97,15.4-21.89,22.77c-1.65-1.73-3.22-3.16-4.71-4.3
		C986.63,209.09,993.77,201.74,1000.08,193.74z M984.9,194.8c-1.49-1.33-3.22-2.61-5.18-3.82c8.51-9.38,15.79-20.3,21.83-32.78
		l6.24,1.65c-1.37,2.9-3.37,6.57-6,11h54.72v5.88l-7.71,15.89c-1.73-0.82-3.75-1.63-6.06-2.41l7.24-13.71h-51.55
		C994.08,183.28,989.57,189.38,984.9,194.8z M995.14,233.87l4.24-4.12c5.14,4.28,10.53,9.1,16.18,14.48l-4.83,4.59
		C1005.59,243.28,1000.4,238.3,995.14,233.87z M1018.21,184.67h6.24v28.3c0.31,8.04-4.06,12.1-13.12,12.18
		c-1.41,0.04-2.81,0.08-4.18,0.12c-0.67,0-1.41,0-2.24,0c-0.67,0-1.79,0-3.35,0c-0.39-2.47-0.88-4.63-1.47-6.47
		c3.73,0.24,7.14,0.35,10.24,0.35c5.41,0.12,8.04-2.14,7.89-6.77V184.67z M1033.62,199.62l4.18-4.12
		c6.35,5.41,13.75,12.12,22.18,20.12l-4.71,4.59C1047.43,212.21,1040.21,205.35,1033.62,199.62z M1038.57,235.16l4.94-3.59
		c5.96,6.9,11.98,14.26,18.06,22.07l-5.41,4.06C1050.43,249.81,1044.57,242.3,1038.57,235.16z"/>
	<path style="fill:#FFFFFF;" d="M1088.05,256.05c5.92-3.96,10.4-7.06,13.42-9.3c0.16,2.2,0.47,4.49,0.94,6.88
		c-6.47,3.84-11.42,7.1-14.83,9.77c-1.49,1.06-3.02,2.33-4.59,3.82l-3.94-4.83c2.08-1.92,3.04-4.37,2.88-7.36v-50.02h-14.24v-5.77
		h20.36V256.05z M1091.11,183.38c-5.57-6.16-11-11.83-16.3-17.01l4.71-4c6.28,5.88,11.87,11.4,16.77,16.53L1091.11,183.38z
		 M1104.82,183.85h32.19v-10h-34.36v-5.3h34.36V158.2h6.24v10.36h36.66v5.3h-36.66v10h32.89v5.18h-32.89v10.24h38.37v5.3h-82.32
		v-5.3h37.72v-10.24h-32.19V183.85z M1114.24,271.47h-6.3v-57.61h64.73v43.72c0.27,8.47-4.18,12.69-13.36,12.65
		c-5.57,0.16-10.85,0.24-15.83,0.24c-0.04-0.12-0.08-0.27-0.12-0.47c-0.55-2.47-1.06-4.47-1.53-6c2.82,0.2,5.31,0.31,7.47,0.35
		c2.2,0.08,5,0.12,8.41,0.12c3.33,0.04,5.61-0.49,6.83-1.59c1.29-1.06,1.92-2.98,1.88-5.77v-7h-52.19V271.47z M1114.24,219.04v10.47
		h52.19v-10.47H1114.24z M1114.24,234.57v10.47h52.19v-10.47H1114.24z"/>
	<path style="fill:#FFFFFF;" d="M1192.44,254.58l-3.24-6.65c17.06-7.69,32.32-15.4,45.78-23.13c0.43,2.59,0.86,4.96,1.29,7.12
		C1219.69,240.16,1205.07,247.72,1192.44,254.58z M1242.58,158.08h6.53v24.54h51.31v6.06h-51.31v3.47
		c4.16,11.1,8.81,20.5,13.95,28.19c10.51-8.08,19.1-15.67,25.77-22.77l5.18,4.47c-5.53,5.3-14.59,13.12-27.19,23.48
		c7.69,10.28,19.24,19.4,34.66,27.36c-1.65,1.73-3.08,3.55-4.29,5.47c-23.11-12.04-39.13-29.21-48.07-51.49v46.25
		c0.59,10.75-4.84,16.14-16.3,16.18c-1.92,0.08-3.84,0.14-5.77,0.18c-0.94,0.04-1.94,0.06-3,0.06c-0.9,0-2.12,0-3.65,0
		c-0.16-2.24-0.63-4.53-1.41-6.88c3.45,0.24,7.71,0.35,12.77,0.35c4.2,0.04,7.04-0.8,8.53-2.53c1.57-1.57,2.33-4.61,2.29-9.12
		v-62.67h-52.55v-6.06h52.55V158.08z M1219.8,221.45c-5.57-6.79-11.67-13.61-18.3-20.48l5.06-3.77
		c6.71,6.87,12.93,13.57,18.65,20.12L1219.8,221.45z M1261.11,167.67l4.24-4.41c5.41,3.81,11.16,8.1,17.24,12.89l-4.71,4.71
		C1273.21,176.73,1267.62,172.34,1261.11,167.67z"/>
	<path style="fill:#FFFFFF;" d="M1313.54,177.91h12.3c2.31-7.3,4.16-13.71,5.53-19.24l6.53,1.41c-0.47,1.41-1.28,3.88-2.41,7.41
		c-1.53,4.83-2.65,8.3-3.35,10.42h23.95v91.38h-6.24v-9.65h-30.01v10.47h-6.3V177.91z M1319.84,183.73v31.89h30.01v-31.89H1319.84z
		 M1319.84,221.33v32.66h30.01v-32.66H1319.84z M1366.56,203.62c-1.33-1.06-3.18-2.24-5.53-3.53c7.18-11.57,13.2-25.38,18.07-41.43
		l6.41,1.65c-2.12,6.24-4.3,12.02-6.53,17.36h38.96c-0.47,27.46-1.2,51.37-2.18,71.73c0,13.18-6.71,19.73-20.12,19.65
		c-2.39,0.08-5.06,0.14-8,0.18c-1.41,0.04-2.96,0.06-4.65,0.06c-1.49,0-3.55,0-6.18,0c-0.39-2.28-0.9-4.49-1.53-6.65
		c6.16,0.24,12.57,0.35,19.24,0.35c9.92,0.51,14.91-4.26,14.95-14.3c0.71-12.67,1.35-34.32,1.94-64.96h-34.95
		C1373.23,191.42,1369.93,198.05,1366.56,203.62z M1371.62,208.92l4.83-3.41c5.45,6.71,11.81,14.95,19.06,24.71l-5.29,4
		C1383.74,224.92,1377.54,216.49,1371.62,208.92z"/>
	<path style="fill:#FFFFFF;" d="M1431.29,188.68v-6.06h33.78v6.88c-4.28,7.65-8.41,14.24-12.42,19.77v62.2h-6.29V217.1
		c-4,4.55-8.98,9.61-14.95,15.18c-0.55-1.8-1.47-4.18-2.77-7.12c11.26-8.47,21.14-20.63,29.66-36.48H1431.29z M1441.52,162.02
		l5.77-2.65c1.49,2.32,4.28,7.36,8.36,15.12c0.74,1.41,1.29,2.43,1.65,3.06l-6,2.77C1446.98,171.65,1443.72,165.55,1441.52,162.02z
		 M1455.53,215.51l4.47-3.59c3.53,3.61,7.83,8.36,12.89,14.24l-5.06,4.06C1464.61,225.98,1460.51,221.08,1455.53,215.51z
		 M1502.25,180.85h6.3c-0.08,11.34-0.45,21.12-1.12,29.36c-0.2,27.74-14.04,48.19-41.54,61.37c-1.69-1.96-3.29-3.69-4.83-5.18
		c27.11-12.55,40.52-31.4,40.25-56.55C1501.9,202.52,1502.21,192.85,1502.25,180.85z M1477.42,163.96h56.43v67.96h-6.29v-61.84
		h-43.84v63.55h-6.3V163.96z M1506.84,225.39h6.3v28.13c-0.04,3.29,0.57,5.53,1.82,6.71c1.18,1.25,3.41,1.86,6.71,1.82h4.94
		c5.33,0.16,8.39-2.29,9.18-7.36c0.55-3.57,1.02-8.36,1.41-14.36c2.59,1.02,4.61,1.75,6.06,2.18c-0.24,4.59-0.69,9.06-1.35,13.42
		c-0.86,8.2-5.92,12.12-15.18,11.77h-6.77c-8.94,0.24-13.32-4.41-13.12-13.95V225.39z"/>
	<path style="fill:#FFFFFF;" d="M1578.69,158.67h6v18.65h16.18v5.41h-16.18v18.71h18.06v5.41h-53.13v-5.41h9.41v-31.83h6v31.83
		h13.65V158.67z M1555.68,245.4l-5.59-2.77c3.65-6.24,7.2-14.1,10.65-23.6l5.65,1.94C1562.51,231.18,1558.94,239.32,1555.68,245.4z
		 M1554.8,272.17c-1.1-1.81-2.38-3.57-3.82-5.3c20.95-9.26,35.48-24.05,43.6-44.37l5.3,2.53
		C1590.61,246.66,1575.59,262.37,1554.8,272.17z M1574.8,211.8h6.06v29.54h-6.06V211.8z M1630.12,203.86h6.18v8.65
		c0.12,15.89-1.65,27.46-5.3,34.72l3.71-4.12c11.49,8.4,21.34,15.79,29.54,22.18l-4.35,5.06c-8.12-6.71-17.83-14.22-29.13-22.54
		c-4.28,9.22-14.89,17.34-31.83,24.36c-1.69-2.63-3.1-4.59-4.24-5.88c15.65-6.08,25.36-12.34,29.13-18.77
		c4.43-6,6.53-17.67,6.29-35.01V203.86z M1608.11,188.21h17.59l3.71-17.59h-26.24v-5.59h60.49v5.59h-27.95l-4,17.59h26.77v58.43
		h-6.18v-53.02h-38.07v53.02h-6.12V188.21z"/>
	<path style="fill:#FFFFFF;" d="M1681.02,167.43h92.79v6.18h-44.37c-0.47,12.32-1.51,22.52-3.12,30.6h56.61v6.24h-46.13v40.66
		c-0.04,3.92,0.74,6.57,2.35,7.94c1.53,1.49,4.43,2.22,8.71,2.18h16.54c7.3,0.43,11.14-2.75,11.53-9.53c0.59-4.08,1-8.9,1.24-14.48
		c2.51,1.22,4.63,2.06,6.35,2.53c-0.35,6.51-0.82,11.61-1.41,15.3c-0.9,8.55-6.65,12.65-17.24,12.3h-19.06
		c-10.75,0.43-15.93-4.75-15.54-15.53v-41.37h-5.3c-4.98,25.85-21.36,46.43-49.13,61.73c-0.55-0.63-1.51-1.69-2.88-3.18
		c-0.94-1.02-1.63-1.77-2.06-2.24c26.83-13.97,42.6-32.74,47.31-56.31h-46.25v-6.24h47.84c1.73-8.39,2.77-18.59,3.12-30.6h-41.9
		V167.43z"/>
	<path style="fill:#FFFFFF;" d="M1809.23,211.1c-5.77-5.26-11.81-10.28-18.12-15.06l4.24-4.35c6.59,4.71,12.83,9.49,18.71,14.36
		L1809.23,211.1z M1792.7,268.17c5.26-13.65,10.12-28.11,14.59-43.37c2.04,1.1,4.26,2.06,6.65,2.88c-3.84,10.59-8.51,24.93-14,43.01
		L1792.7,268.17z M1813.53,181.09c-6.67-6.47-12.57-11.83-17.71-16.06l4.71-4.06c5.61,4.59,11.67,9.77,18.18,15.53L1813.53,181.09z
		 M1821.12,213.51h38.25V186.5h-32.66v-6.06h32.66v-22.13h6.47v22.13h33.13v6.06h-33.13v27.01h38.72v6h-48.25l6.77,2.41
		c-8,12.4-17.28,24.66-27.83,36.78c1.61-0.08,4.28-0.18,8-0.29c19.93-0.82,34.21-1.33,42.84-1.53c-4.04-5.49-9.14-12.16-15.3-20.01
		l5.41-3.35c6.35,7.73,15,18.93,25.95,33.6l-5.71,3.88c-2-2.98-4-5.81-6-8.47c-17.1,0.47-34.05,1.2-50.84,2.18
		c-4.87,0.2-8.92,0.65-12.18,1.35l-3.53-6.77c2.63-1.41,5.53-3.82,8.71-7.24c8.79-9.69,16.54-20.54,23.24-32.54h-34.72V213.51z"/>
	<path style="fill:#FFFFFF;" d="M1927.1,158.78h6v23.36h11.83v5.77h-11.83v24.24c1.29-0.55,3.22-1.37,5.77-2.47
		c2.08-0.86,3.57-1.49,4.47-1.88c0.16,2.24,0.43,4.18,0.82,5.83c-1.45,0.55-4.26,1.73-8.41,3.53c-1.18,0.51-2.06,0.9-2.65,1.18
		v39.48c0.04,4.55-0.79,7.67-2.47,9.36c-1.57,1.8-4.65,2.86-9.24,3.18c-1.02,0.08-2.12,0.14-3.3,0.18
		c-0.55,0.04-1.16,0.06-1.82,0.06c-0.55,0-1.38,0-2.47,0c-0.39-3.06-0.75-5.14-1.06-6.24c0.94,0.04,1.9,0.08,2.88,0.12
		c0.47,0,1.06,0,1.77,0c0.55,0,1.53,0,2.94,0c4.71,0.2,6.96-2.1,6.77-6.88v-36.72c-5.77,2.39-10.67,4.47-14.71,6.24l-1.47-6.35
		c2.43-0.9,6.85-2.59,13.24-5.06c1.29-0.51,2.27-0.88,2.94-1.12v-26.66h-14.36v-5.77h14.36V158.78z M1945.87,224.1
		c-1.18-1.92-2.59-3.61-4.24-5.06c14.04-4.75,25.26-11.53,33.66-20.36h-28.3v-5.3h34.07v-22.07c-4.87,0.24-12.61,0.51-23.24,0.82
		c-3.02,0.12-5.32,0.2-6.88,0.24c-0.16-1.49-0.59-3.29-1.29-5.41c27.7-0.55,50.27-1.63,67.73-3.24l1.41,5.3
		c-6.24,0.47-14.59,1.02-25.07,1.65c-2.94,0.2-5.16,0.33-6.65,0.41v22.3h37.25v5.3H1993c7.34,7.88,18.03,14.02,32.07,18.42
		c-1.02,1.18-2.28,3.02-3.77,5.53c-15.81-5.92-27.22-13.91-34.25-23.95v18.3h-6v-18.06C1973.17,209.66,1961.44,218.06,1945.87,224.1
		z M1952.16,222.51h64.67v49.19h-6v-6.18h-52.67v6.18h-6V222.51z M1955.28,179.5l3.94-3.71c4.24,3.33,8.3,6.83,12.18,10.47
		l-4.29,4.06C1964.17,187.3,1960.23,183.69,1955.28,179.5z M1958.17,227.81v13.53h23.24v-13.53H1958.17z M1958.17,246.52v13.71
		h23.24v-13.71H1958.17z M2010.83,227.81h-23.36v13.53h23.36V227.81z M1987.47,246.52v13.71h23.36v-13.71H1987.47z M2000.59,190.09
		l-4.24-3.94c5.57-4.47,9.87-8.26,12.89-11.36l4.36,3.65C2011.52,180.63,2007.18,184.52,2000.59,190.09z"/>
	<path style="fill:#FFFFFF;" d="M2032.66,179.97h54.08v5.94h-33.37c0,6.08-0.23,13.51-0.71,22.3h27.07
		c-0.2,11.57-0.71,26.07-1.53,43.49c0.16,11.02-5.16,16.4-15.95,16.12c-1.92,0.08-4.85,0.12-8.77,0.12
		c-0.16-1.69-0.61-3.92-1.35-6.71c3.1,0.24,6.08,0.35,8.94,0.35c3.88,0.04,6.57-0.65,8.06-2.06c1.57-1.33,2.45-3.86,2.65-7.59
		c0.79-13.1,1.24-25.75,1.35-37.95h-20.89c-0.9,26.36-6.24,45.52-16.01,57.49c-1.02-1.02-2.75-2.51-5.18-4.47
		c9.45-11.45,14.47-30.34,15.06-56.67c0.39-6.71,0.67-14.85,0.82-24.42h-14.3V179.97z M2054.79,159.61l6.18-1.71
		c2.51,6.83,4.77,13.26,6.77,19.3l-6.41,1.82C2059.12,171.89,2056.95,165.41,2054.79,159.61z M2141.58,271
		c-12.12-7.73-21.36-15.42-27.71-23.07c-6.83,8.12-16.87,16.24-30.13,24.36c-1.73-2.32-3.26-4.24-4.59-5.77
		c14.01-8.32,24.21-16.36,30.6-24.13c-7.81-11.14-12.65-25.97-14.54-44.49c-2.28,4.16-5.18,8.91-8.71,14.24
		c-2.12-2.47-3.73-4.2-4.82-5.18c10.04-13.53,17.59-29.93,22.65-49.19l6.53,1.24c-2.04,7.1-4.61,14.42-7.71,21.95h42.31v5.88h-10
		c-2.31,24.56-8.14,43.19-17.48,55.9c6.36,8.2,15.67,15.51,27.95,21.95C2144.17,266.9,2142.72,269,2141.58,271z M2113.87,237.1
		c8.04-10.94,13.1-27.69,15.18-50.25h-28.42c-0.08,0.12-0.16,0.29-0.24,0.53c-0.16,0.35-0.41,0.82-0.76,1.41
		C2101.71,209.55,2106.45,225.65,2113.87,237.1z"/>
	<path style="fill:#FFFFFF;" d="M2209.25,258.23c-1.41,0-2.61-0.49-3.59-1.47c-0.98-0.98-1.47-2.2-1.47-3.65
		c0-1.49,0.49-2.71,1.47-3.65c0.98-0.94,2.18-1.41,3.59-1.41c1.45,0,2.69,0.47,3.71,1.41c1.02,0.94,1.53,2.16,1.53,3.65
		c0,1.45-0.51,2.67-1.53,3.65C2211.94,257.74,2210.7,258.23,2209.25,258.23z M2211.9,231.51h-5.47l-0.65-65.55h6.71L2211.9,231.51z"
		/>
</g>
<g>
	<path style="fill:#FFFFFF;" d="M801.05,1304.55l-0.42-3.5c6.78-0.25,13.1-0.57,18.97-0.95v-6.93h-15.77v-3.66
		c1.75-2.44,3.66-5.46,5.71-9.06h-7.88v-3.28h9.67c1.5-2.79,2.84-5.55,4.04-8.27l4.08,1.11c-0.66,1.29-1.71,3.29-3.16,5.98
		c-0.28,0.53-0.5,0.93-0.65,1.18H837v3.28h-23.2c-1.09,1.96-2.65,4.61-4.68,7.96c-0.41,0.66-0.71,1.15-0.91,1.48h11.39v-5.94h3.88
		v5.94h11.88v3.28h-11.88v6.7c1.57-0.08,3.91-0.21,7.01-0.42c2.39-0.15,4.16-0.27,5.33-0.34c-0.1,0.97-0.15,2.08-0.15,3.35
		c-4.14,0.28-8.2,0.53-12.19,0.76v5.94h-3.88v-5.71c-2.69,0.18-6.75,0.42-12.19,0.72C804.59,1304.35,802.47,1304.48,801.05,1304.55z
		 M812.17,1312.29h50.73v30.89h-4.08v-3.88h-42.66v3.88h-4V1312.29z M816.17,1315.79v8.19h42.66v-8.19H816.17z M816.17,1327.41v8.34
		h42.66v-8.34H816.17z M834.56,1306.92c3.17-3.71,5.18-7.07,6.02-10.09c0.99-3.02,1.46-7.88,1.41-14.59v-6.93
		c9.9-0.36,19.49-1.18,28.76-2.47l1.18,3.73c-9.45,0.96-18.13,1.66-26.05,2.09v3.58c0,2.82-0.08,5.27-0.23,7.35h27.92v3.35h-10.74
		v15.69h-3.92v-15.69h-13.56c-0.56,5.94-3.03,11.4-7.43,16.38C836.54,1308.22,835.43,1307.42,834.56,1306.92z"/>
	<path style="fill:#FFFFFF;" d="M881.52,1276.87h24.34v60.6h-4.04v-6.63H885.6v7.58h-4.08V1276.87z M885.6,1280.6v21.4h16.23v-21.4
		H885.6z M885.6,1305.66v21.44h16.23v-21.44H885.6z M937.63,1269.55h4.11v17.06h10.55v3.88h-10.55v41.21
		c0.08,6.6-3.28,9.95-10.06,10.05c-3.66,0.1-7.35,0.15-11.08,0.15c-0.23-1.6-0.56-3.11-0.99-4.53c3.2,0.15,6.88,0.23,11.05,0.23
		c2.62,0.03,4.42-0.48,5.41-1.52c1.07-0.99,1.59-2.77,1.56-5.33v-40.26h-27.39v-3.88h27.39V1269.55z M922.01,1318.3
		c-3.02-6.2-5.85-11.72-8.49-16.57l3.5-1.79c3.28,5.74,6.18,11.17,8.72,16.3L922.01,1318.3z"/>
	<path style="fill:#FFFFFF;" d="M958.84,1276.18h70.2v4.11h-28.07c-10.26,16.58-24.07,30.57-41.44,41.97
		c-0.81-1.07-1.83-2.21-3.05-3.43c17.7-11.6,30.77-24.45,39.23-38.54h-36.87V1276.18z M990.88,1295.11h4.38v48.14h-4.38V1295.11z
		 M1026.94,1320.17c-9.12-6.37-17.7-12.07-25.75-17.1l2.63-3.2c7.77,4.83,16.4,10.42,25.9,16.8L1026.94,1320.17z"/>
	<path style="fill:#FFFFFF;" d="M1069.91,1269.55h4.23v10.97h33.29v4h-33.29v12.87h21.44v4.04c-4.57,10.87-11.31,19.6-20.22,26.21
		c6.63,4.47,17.39,8.01,32.3,10.63c-0.05,0.08-0.13,0.18-0.23,0.3c-1.07,1.37-1.89,2.62-2.48,3.73
		c-16.25-3.33-27.39-7.27-33.4-11.84c-7.62,5.08-18.83,9.45-33.63,13.1c-0.46-1.02-1.28-2.36-2.48-4.04
		c14.22-3.3,25.04-7.26,32.45-11.88c-7.72-6.1-13.7-14.88-17.94-26.36h-7.27v-3.88h27.23v-12.87h-34.7v-4h34.7V1269.55z
		 M1090.89,1301.28h-36.34c4.11,11.02,9.8,18.98,17.06,23.88C1080.05,1319.52,1086.48,1311.56,1090.89,1301.28z"/>
	<path style="fill:#FFFFFF;" d="M1112.49,1310.42c0.51-0.1,1.28-0.27,2.32-0.49c3.86-0.81,6.83-1.49,8.91-2.02v-18.24h-10.44v-3.73
		h10.44v-16.3h4.08v16.3h9.1v3.73h-9.1v17.33c0.79-0.2,1.98-0.51,3.58-0.91c2.46-0.61,4.33-1.09,5.6-1.45
		c-0.03,0.58-0.04,1.19-0.04,1.83c0,0.94,0.04,1.71,0.11,2.32c-1.27,0.3-3.11,0.74-5.52,1.29c-1.68,0.41-2.92,0.7-3.73,0.88v23.39
		c0.1,5.13-2.3,7.68-7.2,7.65c-2.13,0.05-4.22,0.08-6.25,0.08c-0.13-1.47-0.38-3.01-0.76-4.61c1.14,0.1,3.17,0.15,6.09,0.15
		c2.79,0.1,4.14-1.24,4.04-4.04v-21.6c-1.19,0.28-3.08,0.76-5.67,1.45c-2.13,0.56-3.77,0.98-4.91,1.26L1112.49,1310.42z
		 M1170.15,1304.02h4.11v7.39h12.19v3.7h-12.19v18.24c0.15,5.69-3.12,8.54-9.83,8.57c-1.45,0.03-2.89,0.05-4.34,0.08
		c-0.69,0-1.44,0-2.25,0c-0.69,0-1.71,0-3.09,0c-0.05-1.19-0.33-2.68-0.84-4.46c1.68,0.1,3.17,0.18,4.49,0.23
		c0.63,0.03,1.35,0.04,2.13,0.04c0.63,0,1.68,0,3.12,0c2.56,0.03,4.28-0.39,5.14-1.26c0.91-0.79,1.36-2.35,1.33-4.69v-16.76h-32.07
		v-3.7h32.07V1304.02z M1141.66,1280.29h18.59v-10.66h4.11v10.66h18.74v3.66h-18.74v12.57h22.09v3.66h-48.22v-3.66h22.01v-12.57
		h-18.59V1280.29z M1142.12,1321.39l3.05-2.7c5.1,4.77,8.7,8.23,10.78,10.36l-3.28,2.89
		C1149.32,1328.33,1145.8,1324.82,1142.12,1321.39z"/>
	<path style="fill:#FFFFFF;" d="M1209,1270.39h3.88v22.78h6.17v3.5h-19.35v13.45h13.64v32.03h-3.88v-28.53h-9.75
		c0.23,12.39-1.78,22.07-6.02,29.02c-1.09-0.96-2.26-1.85-3.5-2.67c2.36-4.04,3.87-7.92,4.53-11.65c0.76-3.76,1.13-9.75,1.1-17.98
		v-38.01h3.88v20.83h9.29V1270.39z M1215.14,1340.05c3.71-5.26,6.13-10.38,7.27-15.39c1.27-4.98,1.89-12.3,1.87-21.98v-26.85
		c12.72-0.13,25.3-1.03,37.74-2.7l1.18,3.88c-9.93,1.09-21.61,1.96-35.04,2.59v14.02h32.15v3.77c-2.56,11.65-6.41,20.74-11.54,27.27
		c3.76,4.44,9.04,8.97,15.84,13.6c-1.22,1.47-2.13,2.72-2.74,3.73c-6.78-4.82-12.04-9.51-15.77-14.05
		c-4.04,4.7-10.04,9.67-18.02,14.93c-0.41-0.66-1.12-1.63-2.13-2.89c-0.25-0.3-0.44-0.53-0.57-0.69
		c8.15-5.23,14.18-10.13,18.09-14.7c-5.08-6.96-8.57-16.05-10.47-27.27h-4.84v5.29c0.05,10.05-0.6,17.75-1.94,23.08
		c-1.24,5.48-3.76,11.11-7.54,16.87C1217.71,1341.73,1216.53,1340.89,1215.14,1340.05z M1256.35,1297.32h-19.5
		c1.95,10,5.08,18,9.37,23.99C1250.58,1315.52,1253.96,1307.53,1256.35,1297.32z"/>
	<path style="fill:#FFFFFF;" d="M1270.21,1322.27c-0.43-1.29-1.03-2.88-1.79-4.76c5.79-7.29,10.21-16.69,13.25-28.22h-11.46v-3.92
		h11.54v-15.5h4.08v15.5h10.78v3.92h-10.78v13.64l2.67-2.32c3.05,3.1,6.32,6.6,9.83,10.51l-3.12,2.74
		c-3.17-3.73-6.3-7.27-9.37-10.63v39.57h-4.08v-45.4C1279.24,1306.97,1275.39,1315.26,1270.21,1322.27z M1296.49,1279.53v-4h40.41
		v4.23c-3.56,17.88-9.04,31.47-16.46,40.79c5.28,6.15,12.67,12,22.17,17.56c-0.97,1.14-1.96,2.46-2.97,3.96
		c-9.47-5.89-16.81-11.92-22.02-18.09c-5.69,6.55-13.88,12.95-24.57,19.2c-0.89-1.19-1.93-2.46-3.12-3.81
		c10.79-5.94,19.09-12.24,24.91-18.89c-7.34-9.65-12.05-23.29-14.13-40.94H1296.49z M1332.71,1279.53h-27.77
		c1.73,16.22,5.96,28.76,12.68,37.59C1324.66,1308.24,1329.69,1295.71,1332.71,1279.53z"/>
	<path style="fill:#FFFFFF;" d="M1381.62,1270.01h4.38c0,3.68-0.01,6.36-0.04,8.04c0,1.98-0.03,3.72-0.08,5.22h27.8v49.06
		c0.08,5.94-3,8.99-9.22,9.14c-1.4,0.05-2.96,0.09-4.69,0.12c-0.84,0.03-1.75,0.04-2.74,0.04c-0.86,0-2.06,0-3.58,0
		c-0.15-1.45-0.43-3.03-0.84-4.76c3.61,0.2,7.21,0.3,10.82,0.3c4.16,0.13,6.17-1.77,6.02-5.68v-44.18h-23.73
		c0,0.33-0.01,0.81-0.04,1.45c-0.03,0.58-0.04,1.02-0.04,1.29c-0.28,6.09-1.13,10.88-2.55,14.36l2.32-2.17
		c6.5,5.44,13.13,11.34,19.88,17.71l-3.35,3.28c-7.29-7.24-13.67-13.26-19.16-18.05c-2.36,6.53-8.81,12.95-19.35,19.27
		c-0.94-1.37-1.9-2.59-2.89-3.66c13.91-6.83,20.87-16.43,20.87-28.79c0-0.86-0.01-1.51-0.04-1.94c0-0.3,0.01-0.75,0.04-1.33
		c0.03-0.61,0.04-1.08,0.04-1.41h-24.11v55h-4.23v-59.04h28.41c0.02-1.55,0.05-3.3,0.08-5.26c0-0.94,0-2.02,0-3.24
		C1381.62,1273.76,1381.62,1272.17,1381.62,1270.01z"/>
	<path style="fill:#FFFFFF;" d="M1496.18,1320.55c-15.08-5.33-26.62-12.48-34.62-21.44c-8.86,8.91-20.43,16.32-34.7,22.21
		c-0.43-0.71-1.17-1.68-2.21-2.89c-0.15-0.18-0.25-0.3-0.3-0.38c15.79-6.27,28.22-14.51,37.29-24.72l4.3,1.18
		c-0.18,0.2-0.43,0.48-0.76,0.84c-0.46,0.51-0.8,0.88-1.03,1.1c8.25,8.86,19.67,15.68,34.24,20.45
		C1497.4,1318.19,1496.67,1319.41,1496.18,1320.55z M1450.63,1287.8l2.67,3.28c-8.81,5.05-16.38,9.08-22.7,12.07
		c-0.61-1.14-1.45-2.36-2.51-3.66C1436.18,1295.91,1443.7,1292.01,1450.63,1287.8z M1458.44,1270.16l4.23-0.8
		c0.46,1.96,1.03,4.8,1.71,8.53c0.08,0.33,0.13,0.59,0.15,0.76h30.17v12.27h-4.11v-8.42h-58.2v8.42h-4.11v-12.27h32.03
		C1459.9,1275.84,1459.28,1273.01,1458.44,1270.16z M1437.53,1316.74h47.84v26.43h-4.23v-4.23h-39.38v4.23h-4.23V1316.74z
		 M1441.76,1320.47v14.74h39.38v-14.74H1441.76z M1492.07,1302.61c-7.41-4.09-15.01-7.94-22.78-11.54l2.32-3.28
		c9.75,4.6,17.34,8.32,22.78,11.16L1492.07,1302.61z"/>
	<path style="fill:#FFFFFF;" d="M1503.61,1292.79h14.21v-13.41c-5.64,0.41-9.9,0.69-12.8,0.84c-0.2-1.19-0.54-2.51-1.03-3.96
		c10.51-0.51,20.34-1.32,29.48-2.44l1.1,4.07c-0.71,0.05-1.77,0.14-3.16,0.27c-4.14,0.38-7.33,0.67-9.56,0.88v13.75h13.9v3.81h-13.9
		v10.86l2.02-1.94c2.44,2.03,6.08,5.36,10.93,9.98c0.36,0.33,0.62,0.58,0.8,0.76l-3.12,3.12c-4.17-4.39-7.71-7.95-10.63-10.66v34.16
		h-4.04v-38.77c-3.07,8.79-7.5,16.8-13.29,24.03c-0.71-1.63-1.49-3.13-2.32-4.53c6.58-7.67,11.67-16.67,15.27-27.01h-13.86V1292.79z
		 M1541.2,1278.73h31.69v62.08h-4.15v-7.31h-23.39v7.43h-4.15V1278.73z M1545.36,1282.65v46.96h23.39v-46.96H1545.36z"/>
	<path style="fill:#FFFFFF;" d="M1580.66,1336.17h10.47v-47.53h24.19v-8.11h-32.95v-3.66h32.95v-7.31h4.11v7.31h33.18v3.66h-33.18
		v8.11h24.19v47.53h10.7v3.66h-73.66V1336.17z M1595.25,1292.25v8.34h44.26v-8.34H1595.25z M1595.25,1304.1v8.34h44.26v-8.34
		H1595.25z M1595.25,1315.94v8.34h44.26v-8.34H1595.25z M1595.25,1327.79v8.38h44.26v-8.38H1595.25z"/>
	<path style="fill:#FFFFFF;" d="M1668.84,1270.01h3.88v15.12h7.66v3.73h-7.66v15.69c0.84-0.36,2.08-0.89,3.73-1.6
		c1.35-0.56,2.31-0.96,2.89-1.22c0.1,1.45,0.28,2.71,0.53,3.77c-0.94,0.36-2.76,1.12-5.45,2.29c-0.76,0.33-1.33,0.58-1.71,0.76
		v25.56c0.03,2.95-0.51,4.96-1.6,6.05c-1.02,1.17-3.01,1.85-5.98,2.06c-0.66,0.05-1.37,0.09-2.13,0.12
		c-0.36,0.03-0.75,0.04-1.18,0.04c-0.36,0-0.89,0-1.6,0c-0.25-1.98-0.48-3.33-0.69-4.04c0.61,0.03,1.23,0.05,1.87,0.08
		c0.3,0,0.69,0,1.14,0c0.36,0,0.99,0,1.9,0c3.05,0.13,4.51-1.36,4.38-4.46v-23.77c-3.73,1.55-6.91,2.89-9.52,4.04l-0.95-4.11
		c1.57-0.58,4.43-1.68,8.57-3.28c0.84-0.33,1.47-0.57,1.9-0.72v-17.25h-9.29v-3.73h9.29V1270.01z M1680.99,1312.29
		c-0.76-1.24-1.68-2.34-2.74-3.28c9.09-3.07,16.35-7.47,21.79-13.18h-18.32v-3.43h22.05v-14.28c-3.15,0.15-8.16,0.33-15.04,0.53
		c-1.96,0.08-3.44,0.13-4.46,0.15c-0.1-0.96-0.38-2.13-0.84-3.5c17.93-0.36,32.54-1.05,43.84-2.09l0.91,3.43
		c-4.04,0.3-9.45,0.66-16.22,1.07c-1.9,0.13-3.34,0.22-4.3,0.27v14.44h24.11v3.43h-20.26c4.75,5.1,11.67,9.08,20.76,11.92
		c-0.66,0.76-1.47,1.96-2.44,3.58c-10.23-3.83-17.62-9-22.17-15.5v11.85h-3.88v-11.69
		C1698.66,1302.94,1691.07,1308.38,1680.99,1312.29z M1685.06,1311.26h41.86v31.84h-3.88v-4h-34.09v4h-3.88V1311.26z
		 M1687.08,1283.42l2.55-2.4c2.74,2.16,5.37,4.42,7.88,6.78l-2.78,2.63C1692.83,1288.47,1690.28,1286.13,1687.08,1283.42z
		 M1688.95,1314.69v8.76h15.04v-8.76H1688.95z M1688.95,1326.8v8.87h15.04v-8.87H1688.95z M1723.04,1314.69h-15.12v8.76h15.12
		V1314.69z M1707.91,1326.8v8.87h15.12v-8.87H1707.91z M1716.41,1290.27l-2.74-2.55c3.61-2.89,6.39-5.35,8.34-7.35l2.82,2.36
		C1723.48,1284.15,1720.67,1286.67,1716.41,1290.27z"/>
	<path style="fill:#FFFFFF;" d="M1773.46,1334.38c-0.91,0-1.69-0.32-2.32-0.95c-0.64-0.63-0.95-1.42-0.95-2.36
		c0-0.96,0.32-1.75,0.95-2.36c0.63-0.61,1.41-0.91,2.32-0.91c0.94,0,1.74,0.3,2.4,0.91c0.66,0.61,0.99,1.4,0.99,2.36
		c0,0.94-0.33,1.73-0.99,2.36C1775.2,1334.06,1774.4,1334.38,1773.46,1334.38z M1775.18,1317.09h-3.54l-0.42-42.43h4.34
		L1775.18,1317.09z"/>
</g>
</svg>
